<?xml version="1.0" encoding="UTF-8"?>
<svg xmlns="http://www.w3.org/2000/svg" xmlns:xlink="http://www.w3.org/1999/xlink"
  viewBox="0 0 297.638 420.945">
  <defs>
    <g>


    </g>
  </defs>
  <g fill="rgb(11.047363%, 10.797119%, 13.73291%)" fill-opacity="1">
    <use xlink:href="#glyph-0-0" x="91.523985" y="199.514827" />
    <use xlink:href="#glyph-0-1" x="105.980966" y="199.514827" />
    <use xlink:href="#glyph-0-2" x="119.346855" y="199.514827" />
    <use xlink:href="#glyph-0-3" x="133.803837" y="199.514827" />
    <use xlink:href="#glyph-0-4" x="140.68162" y="199.514827" />
    <use xlink:href="#glyph-0-5" x="156.21021" y="199.514827" />
    <use xlink:href="#glyph-0-6" x="171.738801" y="199.514827" />
    <use xlink:href="#glyph-0-0" x="178.616584" y="199.514827" />
    <use xlink:href="#glyph-0-7" x="193.073566" y="199.514827" />
  </g>
  <g fill="rgb(11.047363%, 10.797119%, 13.73291%)" fill-opacity="1">
    <use xlink:href="#glyph-1-0" x="79.796049" y="209.56021" />
    <use xlink:href="#glyph-1-1" x="85.886998" y="209.56021" />
    <use xlink:href="#glyph-1-2" x="88.259899" y="209.56021" />
    <use xlink:href="#glyph-1-3" x="91.607653" y="209.56021" />
  </g>
  <g fill="rgb(11.047363%, 10.797119%, 13.73291%)" fill-opacity="1">
    <use xlink:href="#glyph-1-4" x="94.675799" y="209.56021" />
    <use xlink:href="#glyph-1-5" x="99.368702" y="209.56021" />
    <use xlink:href="#glyph-1-6" x="101.97587" y="209.56021" />
    <use xlink:href="#glyph-1-7" x="107.462258" y="209.56021" />
    <use xlink:href="#glyph-1-8" x="112.495226" y="209.56021" />
    <use xlink:href="#glyph-1-9" x="119.515687" y="209.56021" />
  </g>
  <g fill="rgb(11.047363%, 10.797119%, 13.73291%)" fill-opacity="1">
    <use xlink:href="#glyph-1-4" x="124.58644" y="209.56021" />
    <use xlink:href="#glyph-1-10" x="129.279343" y="209.56021" />
  </g>
  <g fill="rgb(11.047363%, 10.797119%, 13.73291%)" fill-opacity="1">
    <use xlink:href="#glyph-1-2" x="133.730421" y="209.56021" />
    <use xlink:href="#glyph-1-5" x="137.078176" y="209.56021" />
    <use xlink:href="#glyph-1-11" x="139.685344" y="209.56021" />
    <use xlink:href="#glyph-1-4" x="146.781375" y="209.56021" />
    <use xlink:href="#glyph-1-12" x="151.474278" y="209.56021" />
    <use xlink:href="#glyph-1-13" x="156.628158" y="209.56021" />
    <use xlink:href="#glyph-1-14" x="161.577998" y="209.56021" />
    <use xlink:href="#glyph-1-2" x="166.278458" y="209.56021" />
    <use xlink:href="#glyph-1-15" x="169.626213" y="209.56021" />
    <use xlink:href="#glyph-1-10" x="172.014228" y="209.56021" />
    <use xlink:href="#glyph-1-5" x="176.306609" y="209.56021" />
    <use xlink:href="#glyph-1-16" x="178.913777" y="209.56021" />
    <use xlink:href="#glyph-1-17" x="183.98453" y="209.56021" />
    <use xlink:href="#glyph-1-18" x="188.239126" y="209.56021" />
  </g>
  <g fill="rgb(11.047363%, 10.797119%, 13.73291%)" fill-opacity="1">
    <use xlink:href="#glyph-1-14" x="193.558504" y="209.56021" />
    <use xlink:href="#glyph-1-4" x="198.258964" y="209.56021" />
    <use xlink:href="#glyph-1-19" x="202.951866" y="209.56021" />
    <use xlink:href="#glyph-1-14" x="208.105746" y="209.56021" />
    <use xlink:href="#glyph-1-3" x="212.806206" y="209.56021" />
  </g>
  <g fill="rgb(11.047363%, 10.797119%, 13.73291%)" fill-opacity="1">
    <use xlink:href="#glyph-2-0" x="86.22473" y="234.670769" />
    <use xlink:href="#glyph-2-1" x="102.044148" y="234.670769" />
    <use xlink:href="#glyph-2-2" x="114.226415" y="234.670769" />
    <use xlink:href="#glyph-2-3" x="126.408681" y="234.670769" />
    <use xlink:href="#glyph-2-4" x="134.931886" y="234.670769" />
    <use xlink:href="#glyph-2-5" x="141.023019" y="234.670769" />
    <use xlink:href="#glyph-2-6" x="158.069428" y="234.670769" />
    <use xlink:href="#glyph-2-7" x="171.456775" y="234.670769" />
    <use xlink:href="#glyph-2-8" x="177.547908" y="234.670769" />
    <use xlink:href="#glyph-2-2" x="190.935255" y="234.670769" />
    <use xlink:href="#glyph-2-4" x="203.117522" y="234.670769" />
  </g>


  <path fill="none" stroke-width="0.18" stroke-linecap="round" stroke-linejoin="miter"
    stroke="rgb(13.729858%, 12.159729%, 12.548828%)" stroke-opacity="1" stroke-miterlimit="10"
    d="M 0.000387235 0.00190965 L 0.215492 1.050058 C 0.215492 1.050058 0.289801 1.523289 1.005514 1.378582 C 1.721228 1.229964 20.29066 -2.579351 20.763891 -2.677126 C 21.237122 -2.774901 21.241033 -3.103425 21.170635 -3.443682 C 21.100237 -3.783939 20.990729 -4.304102 20.990729 -4.304102 "
    transform="matrix(0.998785, 0, 0, -0.998785, 211.233988, 102.896439)" />
  <path fill="none" stroke-width="0.18" stroke-linecap="round" stroke-linejoin="miter"
    stroke="rgb(13.729858%, 12.159729%, 12.548828%)" stroke-opacity="1" stroke-miterlimit="10"
    d="M 0.00170292 0.00091864 C 0.00170292 0.00091864 0.0564569 0.380286 0.506222 0.290333 C 0.952076 0.196469 20.045583 -3.718443 20.338908 -3.781019 C 20.632233 -3.839684 20.839516 -3.925726 20.769118 -4.262072 "
    transform="matrix(0.998785, 0, 0, -0.998785, 110.998299, 82.332949)" />
  <path fill="none" stroke-width="0.18" stroke-linecap="round" stroke-linejoin="miter"
    stroke="rgb(13.729858%, 12.159729%, 12.548828%)" stroke-opacity="1" stroke-miterlimit="10"
    d="M -0.00165005 0.00122259 L -43.91828 9.008258 C -45.341884 9.301583 -46.257058 10.689988 -45.967644 12.113593 C -45.674319 13.533286 -44.285914 14.452371 -42.862309 14.159046 L 1.05432 5.1481 C 2.477925 4.858686 3.393099 3.466369 3.103685 2.046676 C 2.81036 0.623072 1.421954 -0.292102 -0.00165005 0.00122259 Z M -0.00165005 0.00122259 "
    transform="matrix(0.998785, 0, 0, -0.998785, 115.243836, 338.16919)" />
  <path fill="none" stroke-width="0.18" stroke-linecap="round" stroke-linejoin="miter"
    stroke="rgb(13.729858%, 12.159729%, 12.548828%)" stroke-opacity="1" stroke-miterlimit="10"
    d="M 0.00138055 0.0018468 L -43.91916 9.008882 C -45.342764 9.302207 -46.257939 10.690612 -45.964614 12.114217 C -45.6752 13.53391 -44.286794 14.449084 -42.86319 14.15967 L 1.057351 5.148724 C 2.477044 4.85931 3.396129 3.466994 3.102804 2.0473 C 2.809479 0.623696 1.421074 -0.291478 0.00138055 0.0018468 Z M 0.00138055 0.0018468 "
    transform="matrix(0.998785, 0, 0, -0.998785, 171.283777, 349.665907)" />
  <path fill="none" stroke-width="0.18" stroke-linecap="round" stroke-linejoin="miter"
    stroke="rgb(13.729858%, 12.159729%, 12.548828%)" stroke-opacity="1" stroke-miterlimit="10"
    d="M 0.000875374 0.000234996 C -0.95732 -4.661678 -2.791579 -8.572679 -9.510679 -7.192096 C -16.229779 -5.815423 -16.589591 -5.741114 -17.747247 -5.506454 C -18.908814 -5.267883 -24.133911 -4.094583 -23.163983 0.641639 C -22.190144 5.377861 -25.956438 6.124862 -28.138776 6.570717 C -30.321115 7.020482 -122.393899 25.906705 -126.140638 26.677172 C -129.887377 27.443729 -131.909365 25.683778 -132.449083 23.055586 C -132.988801 20.423482 -135.484019 18.647888 -138.726239 19.312758 C -141.968459 19.977628 -143.880938 20.372639 -148.265171 21.272169 C -152.649403 22.171699 -155.226752 24.98762 -154.080829 30.564707 C -152.938817 36.145706 -108.455092 252.963776 -107.496897 257.649155 C -106.53479 262.334535 -104.907814 266.202514 -96.628225 264.50514 C -91.043316 263.355306 32.035884 238.109795 38.395172 236.80352 C 44.75837 235.497246 47.875438 233.365751 46.502677 226.68185 C 45.133826 219.997949 0.95516 4.662148 0.000875374 0.000234996 Z M 45.360664 195.511172 C 45.360664 195.511172 50.648338 221.28858 51.786439 226.842201 C 52.928451 232.395822 51.223255 238.16846 43.377787 239.779792 C 35.532319 241.387213 32.798529 241.946487 32.798529 241.946487 C 32.798529 241.946487 32.665555 241.617963 31.769936 241.80178 C 30.878228 241.985597 13.478185 245.552429 12.695984 245.716692 C 11.913784 245.873132 11.808187 246.25641 11.808187 246.25641 L -67.780682 262.580928 C -67.780682 262.580928 -67.9293 262.248493 -68.75061 262.416666 C -69.57192 262.584839 -87.589902 266.280735 -88.110065 266.386332 C -88.634139 266.49584 -88.548097 266.843919 -88.548097 266.843919 L -95.404082 268.247968 C -102.396951 269.683305 -105.815166 269.300027 -107.82151 267.778648 C -109.823942 266.257268 -111.282746 265.228675 -112.843235 257.617867 C -114.403724 250.00706 -118.709736 229.02845 -118.709736 229.02845 C -118.709736 229.02845 -118.299081 227.89426 -118.459432 227.11206 C -118.619783 226.32986 -125.573543 192.444948 -125.886423 190.904013 C -126.203214 189.363079 -127.051901 188.361863 -127.051901 188.361863 L -157.894055 38.011253 C -157.894055 38.011253 -157.033635 37.768771 -157.373892 36.110507 C -157.714149 34.456153 -158.077872 32.668826 -158.249956 31.831872 C -158.42204 30.994918 -159.305926 30.412178 -159.305926 30.412178 C -159.305926 30.412178 -162.575523 20.208377 -149.94299 17.619294 C -149.94299 17.619294 -149.727885 17.975195 -149.066926 17.842221 C -148.402056 17.705336 -143.137848 16.6259 -142.824968 16.559413 C -142.410402 16.477282 -142.210941 16.242622 -142.210941 16.090093 C -142.210941 16.090093 -14.860928 -10.035393 -9.1626 -11.204783 C -1.407085 -12.79656 3.14532 -9.620827 4.299065 -3.992897 C 5.703115 2.847444 36.897258 154.914983 36.897258 154.914983 C 36.897258 154.914983 36.783839 156.50676 36.912902 157.148164 C 37.045876 157.793479 44.109144 192.225932 44.300783 193.145017 C 44.488511 194.064102 44.95392 195.108339 45.360664 195.511172 Z M 45.360664 195.511172 "
    transform="matrix(0.998785, 0, 0, -0.998785, 199.440532, 348.851797)" />
  <path fill="none" stroke-width="0.18" stroke-linecap="round" stroke-linejoin="miter"
    stroke="rgb(13.729858%, 12.159729%, 12.548828%)" stroke-opacity="1" stroke-miterlimit="10"
    d="M 0.000874966 0.00164007 C 5.585784 -1.144283 128.664984 -26.397616 135.024272 -27.69998 C 141.38747 -29.006254 144.504538 -31.137749 143.131777 -37.82165 C 141.762926 -44.505551 97.58426 -259.841352 96.629975 -264.503265 C 95.67178 -269.165178 93.837521 -273.076179 87.118421 -271.699507 C 80.399321 -270.318923 80.04342 -270.244614 78.881853 -270.009954 C 77.720286 -269.771383 72.495189 -268.598083 73.465117 -263.861861 C 74.438956 -259.12955 70.672662 -258.378638 68.490324 -257.932783 C 66.311896 -257.486929 -25.764799 -238.596795 -29.511538 -237.826328 C -33.258277 -237.059771 -35.280265 -238.819722 -35.819983 -241.451825 C -36.359701 -244.080018 -38.854919 -245.855612 -42.097139 -245.190742 C -45.339359 -244.525872 -47.251838 -244.130861 -51.636071 -243.231331 C -56.020303 -242.331801 -58.597652 -239.519791 -57.451729 -233.938793 C -56.309717 -228.357794 -11.829903 -11.539724 -10.867797 -6.854345 C -9.90569 -2.168965 -8.278714 1.699014 0.000874966 0.00164007 Z M 0.000874966 0.00164007 "
    transform="matrix(0.998785, 0, 0, -0.998785, 102.928814, 84.669607)" />
  <path fill="none" stroke-width="0.058" stroke-linecap="round" stroke-linejoin="miter"
    stroke="rgb(13.729858%, 12.159729%, 12.548828%)" stroke-opacity="1" stroke-miterlimit="10"
    d="M -0.000438899 -0.00173621 C -2.190599 0.448029 -5.753521 1.762125 -4.986965 5.49322 C -3.907529 10.745694 -8.244829 11.637403 -10.325481 12.063702 L -108.39383 32.181891 C -112.074082 32.936714 -114.674898 31.423156 -115.351501 28.130094 C -115.859931 25.646608 -118.226087 24.254292 -120.979431 24.817476 L -130.514452 26.776887 C -135.07859 27.711617 -136.889383 30.621401 -135.903811 35.420199 L -89.319879 262.504647 C -88.400793 266.978832 -86.996744 270.549576 -79.104344 268.930422 L 55.922964 241.228802 C 63.68239 239.637025 64.609297 236.672486 63.600259 231.756358 L 17.098457 5.074743 C 16.081597 0.131238 14.188673 -2.911521 8.236129 -1.691289 Z M -0.000438899 -0.00173621 "
    transform="matrix(0.998785, 0, 0, -0.998785, 181.824657, 353.810766)" />
  <path fill="none" stroke-width="0.18" stroke-linecap="round" stroke-linejoin="miter"
    stroke="rgb(13.729858%, 12.159729%, 12.548828%)" stroke-opacity="1" stroke-miterlimit="10"
    d="M -0.000510613 0.00175272 L -119.301684 24.476797 C -123.220506 25.278552 -125.750924 29.111333 -124.945258 33.030156 L -86.758245 219.166424 C -85.952578 223.089158 -82.123709 225.615664 -78.200975 224.813909 L 41.100198 200.338865 C 45.022932 199.533199 47.549439 195.700418 46.743773 191.781595 L 8.556759 5.645327 C 7.751093 1.722593 3.922223 -0.803913 -0.000510613 0.00175272 Z M -0.000510613 0.00175272 "
    transform="matrix(0.998785, 0, 0, -0.998785, 187.12551, 321.115032)" />
  <path fill="none" stroke-width="0.18" stroke-linecap="round" stroke-linejoin="miter"
    stroke="rgb(13.729858%, 12.159729%, 12.548828%)" stroke-opacity="1" stroke-miterlimit="10"
    d="M 0.0010993 -0.000471272 C 0.0010993 -0.000471272 0.419576 0.926436 0.607304 1.853343 C 0.798943 2.78025 8.233756 38.788836 8.308065 39.395041 C 8.386285 40.001246 8.214201 40.447101 8.214201 40.447101 "
    transform="matrix(0.998785, 0, 0, -0.998785, 71.33484, 160.304217)" />
  <path fill="none" stroke-width="0.18" stroke-linecap="round" stroke-linejoin="miter"
    stroke="rgb(13.729858%, 12.159729%, 12.548828%)" stroke-opacity="1" stroke-miterlimit="10"
    d="M 0.0010993 -0.000471272 C 0.0010993 -0.000471272 -0.120142 0.683954 0.110607 1.798589 C 0.337445 2.917135 7.850478 39.531926 7.916965 39.848717 C 7.983452 40.165508 8.214201 40.447101 8.214201 40.447101 "
    transform="matrix(0.998785, 0, 0, -0.998785, 71.33484, 160.304217)" />
  <path fill="none" stroke-width="0.18" stroke-linecap="round" stroke-linejoin="miter"
    stroke="rgb(13.729858%, 12.159729%, 12.548828%)" stroke-opacity="1" stroke-miterlimit="10"
    d="M 0.00110129 -0.000199473 L 1.276088 -0.262237 "
    transform="matrix(0.998785, 0, 0, -0.998785, 79.537963, 119.906051)" />
  <path fill="none" stroke-width="0.18" stroke-linecap="round" stroke-linejoin="miter"
    stroke="rgb(13.729858%, 12.159729%, 12.548828%)" stroke-opacity="1" stroke-miterlimit="10"
    d="M 0.0010993 -0.000471272 L 1.158756 -0.239042 "
    transform="matrix(0.998785, 0, 0, -0.998785, 71.33484, 160.304217)" />
  <path fill="none" stroke-width="0.18" stroke-linecap="round" stroke-linejoin="miter"
    stroke="rgb(13.729858%, 12.159729%, 12.548828%)" stroke-opacity="1" stroke-miterlimit="10"
    d="M 0.00177663 -0.00184255 C 0.00177663 -0.00184255 -0.0177784 1.018929 0.16995 1.945836 C 0.361589 2.872743 7.702537 38.900884 7.870711 39.483623 C 8.042795 40.070273 8.37523 40.414441 8.37523 40.414441 "
    transform="matrix(0.998785, 0, 0, -0.998785, 237.611507, 194.416128)" />
  <path fill="none" stroke-width="0.18" stroke-linecap="round" stroke-linejoin="miter"
    stroke="rgb(13.729858%, 12.159729%, 12.548828%)" stroke-opacity="1" stroke-miterlimit="10"
    d="M 0.00177663 -0.00184255 C 0.00177663 -0.00184255 0.377233 0.580897 0.607982 1.699443 C 0.83482 2.814078 8.347853 39.428869 8.41434 39.74566 C 8.476916 40.066362 8.37523 40.414441 8.37523 40.414441 "
    transform="matrix(0.998785, 0, 0, -0.998785, 237.611507, 194.416128)" />
  <path fill="none" stroke-width="0.18" stroke-linecap="round" stroke-linejoin="miter"
    stroke="rgb(13.729858%, 12.159729%, 12.548828%)" stroke-opacity="1" stroke-miterlimit="10"
    d="M -0.000570338 0.000541245 L -1.275557 0.262578 "
    transform="matrix(0.998785, 0, 0, -0.998785, 245.977132, 154.051322)" />
  <path fill="none" stroke-width="0.18" stroke-linecap="round" stroke-linejoin="miter"
    stroke="rgb(13.729858%, 12.159729%, 12.548828%)" stroke-opacity="1" stroke-miterlimit="10"
    d="M 0.00177663 -0.00184255 L -1.159791 0.236729 "
    transform="matrix(0.998785, 0, 0, -0.998785, 237.611507, 194.416128)" />
</svg>