<?xml version="1.0" encoding="UTF-8"?>
<svg xmlns="http://www.w3.org/2000/svg" xmlns:xlink="http://www.w3.org/1999/xlink" viewBox="0 0 297.638 420.945">
<defs>
<g>




































</g>
</defs>
<path fill="#f9fafb" fill-rule="nonzero" d="M 96.824219 67.066406 C 88.144531 65.3125 83 68.085938 81.542969 75.316406 L 39.898438 281.492188 C 39.777344 282.089844 39.984375 282.886719 40.191406 283.660156 C 40.421875 284.542969 40.660156 285.457031 40.492188 286.28125 L 33.890625 318.964844 C 33.726562 319.792969 33.148438 320.539062 32.59375 321.265625 C 32.109375 321.898438 31.605469 322.550781 31.484375 323.148438 L 26.152344 349.699219 C 24.691406 356.941406 28.339844 361.503906 37 363.25 L 189.691406 394.09375 C 198.351562 395.84375 203.484375 393.054688 204.945312 385.8125 L 260.367188 111.433594 C 261.828125 104.207031 258.175781 99.65625 249.515625 97.90625 Z "/><path fill="#f9fafb" fill-rule="nonzero" d="M 100.472656 83.335938 C 99.023438 83.042969 97.605469 83.984375 97.3125 85.433594 L 50.203125 318.664062 C 49.910156 320.117188 50.851562 321.535156 52.300781 321.828125 L 191.667969 349.976562 C 193.117188 350.269531 194.539062 349.328125 194.828125 347.878906 L 241.9375 114.644531 C 242.230469 113.195312 241.289062 111.777344 239.839844 111.484375 Z "/>
<path fill-rule="nonzero" fill="#9ca3af" fill-opacity="1" d="M 96.824219 67.066406 C 88.144531 65.3125 83 68.085938 81.542969 75.316406 L 39.898438 281.492188 C 39.777344 282.089844 39.984375 282.886719 40.191406 283.660156 C 40.421875 284.542969 40.660156 285.457031 40.492188 286.28125 L 33.890625 318.964844 C 33.726562 319.792969 33.148438 320.539062 32.59375 321.265625 C 32.109375 321.898438 31.605469 322.550781 31.484375 323.148438 L 26.152344 349.699219 C 24.691406 356.941406 28.339844 361.503906 37 363.25 L 189.691406 394.09375 C 198.351562 395.84375 203.484375 393.054688 204.945312 385.8125 L 260.367188 111.433594 C 261.828125 104.207031 258.175781 99.65625 249.515625 97.90625 Z M 189.492188 395.074219 L 36.800781 364.230469 C 27.621094 362.378906 23.601562 357.285156 25.171875 349.503906 L 30.5 322.953125 C 30.667969 322.125 31.242188 321.375 31.800781 320.652344 C 32.285156 320.019531 32.789062 319.367188 32.910156 318.769531 L 39.511719 286.085938 C 39.632812 285.484375 39.421875 284.6875 39.21875 283.914062 C 38.988281 283.03125 38.75 282.121094 38.917969 281.292969 L 80.5625 75.117188 C 82.128906 67.347656 87.820312 64.226562 97.023438 66.085938 L 249.714844 96.925781 C 258.894531 98.78125 262.917969 103.863281 261.347656 111.632812 L 205.925781 386.011719 C 204.355469 393.792969 198.671875 396.925781 189.492188 395.074219 " stroke="#6b7280" stroke-width="0.7"/>
<path fill-rule="nonzero" fill="#9ca3af" fill-opacity="1" d="M 60.636719 355.597656 L 170.878906 377.867188 C 173.507812 378.394531 175.210938 380.964844 174.679688 383.589844 C 174.597656 383.992188 174.550781 384.382812 174.53125 384.753906 C 174.511719 385.117188 174.523438 385.464844 174.566406 385.789062 C 174.609375 386.113281 174.683594 386.417969 174.785156 386.691406 C 174.878906 386.960938 175.011719 387.222656 175.175781 387.472656 C 175.335938 387.710938 175.527344 387.933594 175.738281 388.128906 C 175.957031 388.332031 176.210938 388.515625 176.488281 388.679688 C 176.773438 388.847656 177.089844 388.996094 177.425781 389.117188 C 177.773438 389.242188 178.144531 389.34375 178.558594 389.429688 L 190.160156 391.773438 C 190.859375 391.9375 191.5625 392.007812 192.222656 392.035156 C 192.875 392.066406 193.503906 392.042969 194.085938 391.960938 C 194.363281 391.925781 194.640625 391.871094 194.90625 391.804688 C 195.175781 391.742188 195.445312 391.660156 195.699219 391.5625 C 196.167969 391.386719 196.609375 391.164062 197.007812 390.898438 C 197.222656 390.761719 197.421875 390.613281 197.605469 390.453125 C 197.792969 390.292969 197.976562 390.121094 198.144531 389.9375 C 198.511719 389.546875 198.847656 389.097656 199.140625 388.609375 C 199.292969 388.34375 199.441406 388.070312 199.574219 387.785156 C 199.710938 387.496094 199.828125 387.207031 199.933594 386.921875 C 200.160156 386.300781 200.347656 385.625 200.492188 384.914062 L 255.917969 110.507812 C 256.039062 109.910156 256.121094 109.316406 256.160156 108.738281 C 256.207031 108.101562 256.199219 107.519531 256.140625 106.957031 C 256.082031 106.347656 255.960938 105.773438 255.785156 105.246094 C 255.695312 104.964844 255.589844 104.695312 255.46875 104.441406 C 255.332031 104.164062 255.191406 103.914062 255.035156 103.679688 C 254.902344 103.476562 254.753906 103.277344 254.59375 103.085938 C 254.441406 102.90625 254.265625 102.726562 254.078125 102.550781 C 253.683594 102.183594 253.238281 101.847656 252.75 101.558594 C 252.492188 101.402344 252.222656 101.257812 251.925781 101.117188 C 251.648438 100.988281 251.355469 100.871094 251.058594 100.761719 C 250.4375 100.53125 249.777344 100.351562 249.050781 100.203125 L 96.332031 69.355469 C 95.726562 69.234375 95.132812 69.152344 94.566406 69.113281 C 93.945312 69.070312 93.347656 69.074219 92.785156 69.132812 C 92.179688 69.195312 91.601562 69.3125 91.074219 69.484375 C 90.796875 69.574219 90.527344 69.683594 90.265625 69.808594 C 90 69.933594 89.746094 70.078125 89.507812 70.238281 C 89.300781 70.371094 89.105469 70.519531 88.914062 70.679688 C 88.722656 70.84375 88.542969 71.015625 88.378906 71.195312 C 88.011719 71.589844 87.675781 72.039062 87.382812 72.527344 C 87.226562 72.789062 87.078125 73.066406 86.945312 73.347656 C 86.816406 73.625 86.699219 73.914062 86.589844 74.210938 C 86.363281 74.835938 86.171875 75.511719 86.027344 76.222656 L 30.605469 350.628906 C 30.480469 351.230469 30.398438 351.828125 30.359375 352.394531 C 30.316406 353.015625 30.324219 353.613281 30.382812 354.175781 C 30.441406 354.78125 30.558594 355.355469 30.734375 355.886719 C 30.824219 356.167969 30.933594 356.4375 31.054688 356.695312 C 31.183594 356.960938 31.328125 357.214844 31.488281 357.453125 C 31.613281 357.652344 31.761719 357.851562 31.929688 358.046875 C 32.078125 358.222656 32.246094 358.398438 32.441406 358.582031 C 32.835938 358.949219 33.285156 359.285156 33.773438 359.578125 C 34.039062 359.738281 34.316406 359.882812 34.597656 360.015625 C 34.871094 360.144531 35.160156 360.265625 35.460938 360.371094 C 36.074219 360.597656 36.75 360.785156 37.46875 360.933594 L 49.070312 363.273438 C 49.484375 363.359375 49.867188 363.40625 50.234375 363.425781 C 50.59375 363.445312 50.9375 363.433594 51.269531 363.390625 C 51.589844 363.347656 51.894531 363.273438 52.171875 363.171875 C 52.445312 363.074219 52.707031 362.945312 52.953125 362.78125 C 53.191406 362.621094 53.414062 362.429688 53.613281 362.21875 C 53.8125 362 54 361.746094 54.160156 361.46875 C 54.328125 361.179688 54.476562 360.867188 54.59375 360.53125 C 54.722656 360.183594 54.828125 359.8125 54.910156 359.398438 C 55.441406 356.773438 58.007812 355.066406 60.636719 355.597656 M 190.148438 392.105469 C 190.128906 392.101562 190.113281 392.097656 190.09375 392.09375 L 178.492188 389.75 C 178.0625 389.664062 177.675781 389.558594 177.3125 389.425781 C 176.960938 389.296875 176.625 389.144531 176.320312 388.964844 C 176.019531 388.789062 175.75 388.589844 175.519531 388.371094 C 175.285156 388.160156 175.078125 387.917969 174.898438 387.652344 C 174.722656 387.378906 174.582031 387.097656 174.476562 386.800781 C 174.367188 386.507812 174.285156 386.179688 174.238281 385.832031 C 174.191406 385.484375 174.179688 385.117188 174.203125 384.738281 C 174.222656 384.347656 174.273438 383.941406 174.359375 383.527344 C 174.851562 381.078125 173.265625 378.679688 170.816406 378.1875 L 60.570312 355.917969 C 58.121094 355.425781 55.726562 357.015625 55.230469 359.464844 C 55.144531 359.894531 55.039062 360.28125 54.90625 360.640625 C 54.777344 360.996094 54.621094 361.332031 54.445312 361.636719 C 54.269531 361.9375 54.070312 362.207031 53.851562 362.441406 C 53.636719 362.671875 53.394531 362.878906 53.132812 363.054688 C 52.867188 363.230469 52.582031 363.375 52.28125 363.484375 C 51.984375 363.589844 51.65625 363.671875 51.3125 363.714844 C 50.964844 363.761719 50.59375 363.773438 50.21875 363.753906 C 49.835938 363.734375 49.4375 363.683594 49.007812 363.597656 L 37.402344 361.253906 C 36.671875 361.105469 35.976562 360.914062 35.347656 360.683594 C 35.039062 360.570312 34.738281 360.445312 34.457031 360.3125 C 34.167969 360.175781 33.878906 360.023438 33.605469 359.859375 C 33.09375 359.554688 32.628906 359.207031 32.21875 358.824219 C 32.011719 358.628906 31.835938 358.445312 31.679688 358.261719 C 31.503906 358.054688 31.34375 357.84375 31.210938 357.632812 C 31.046875 357.386719 30.894531 357.117188 30.757812 356.835938 C 30.628906 356.566406 30.515625 356.285156 30.421875 355.988281 C 30.238281 355.433594 30.117188 354.835938 30.054688 354.210938 C 29.996094 353.628906 29.988281 353.011719 30.03125 352.371094 C 30.074219 351.789062 30.15625 351.179688 30.28125 350.5625 L 85.707031 76.15625 C 85.855469 75.429688 86.046875 74.738281 86.28125 74.101562 C 86.394531 73.792969 86.515625 73.492188 86.648438 73.210938 C 86.785156 72.917969 86.9375 72.628906 87.101562 72.359375 C 87.40625 71.847656 87.753906 71.382812 88.136719 70.972656 C 88.308594 70.785156 88.5 70.601562 88.699219 70.429688 C 88.902344 70.257812 89.113281 70.101562 89.328125 69.964844 C 89.574219 69.796875 89.84375 69.644531 90.125 69.511719 C 90.394531 69.378906 90.679688 69.265625 90.972656 69.171875 C 91.523438 68.992188 92.121094 68.867188 92.75 68.808594 C 93.332031 68.75 93.949219 68.742188 94.585938 68.785156 C 95.171875 68.828125 95.777344 68.910156 96.398438 69.035156 L 249.117188 99.882812 C 249.863281 100.03125 250.53125 100.21875 251.175781 100.453125 C 251.480469 100.5625 251.777344 100.6875 252.0625 100.820312 C 252.371094 100.964844 252.652344 101.113281 252.917969 101.273438 C 253.425781 101.578125 253.890625 101.929688 254.304688 102.3125 C 254.5 102.496094 254.679688 102.683594 254.84375 102.871094 C 255.015625 103.078125 255.171875 103.285156 255.308594 103.496094 C 255.472656 103.742188 255.621094 104.007812 255.765625 104.300781 C 255.890625 104.566406 256.003906 104.851562 256.101562 105.144531 C 256.28125 105.691406 256.402344 106.289062 256.464844 106.925781 C 256.527344 107.503906 256.535156 108.105469 256.488281 108.761719 C 256.445312 109.355469 256.363281 109.960938 256.242188 110.570312 L 200.816406 384.980469 C 200.667969 385.707031 200.476562 386.398438 200.238281 387.035156 C 200.136719 387.328125 200.007812 387.625 199.871094 387.925781 C 199.734375 388.21875 199.585938 388.503906 199.417969 388.777344 C 199.117188 389.285156 198.769531 389.753906 198.386719 390.164062 C 198.207031 390.351562 198.015625 390.535156 197.816406 390.703125 C 197.625 390.871094 197.410156 391.027344 197.1875 391.171875 C 196.773438 391.449219 196.3125 391.683594 195.816406 391.871094 C 195.546875 391.96875 195.265625 392.054688 194.984375 392.125 C 194.707031 392.195312 194.417969 392.25 194.132812 392.285156 C 193.527344 392.371094 192.882812 392.398438 192.207031 392.367188 C 191.546875 392.335938 190.851562 392.246094 190.148438 392.105469 " stroke="#6b7280" stroke-width="0.7"/>
<path fill-rule="nonzero" fill="#9ca3af" fill-opacity="1" d="M 144.855469 379.125 L 169.617188 384.125 C 170.441406 384.292969 171.25 383.757812 171.417969 382.929688 C 171.582031 382.105469 171.046875 381.296875 170.21875 381.128906 L 145.460938 376.128906 Z M 169.417969 385.105469 L 143.675781 379.90625 L 144.675781 374.949219 L 170.417969 380.148438 C 171.785156 380.425781 172.671875 381.761719 172.398438 383.128906 C 172.121094 384.496094 170.785156 385.382812 169.417969 385.105469 " stroke="#6b7280" stroke-width="0.7"/>
<path fill-rule="nonzero" fill="#9ca3af" fill-opacity="1" d="M 119.464844 370.878906 C 118.640625 370.710938 117.832031 371.246094 117.664062 372.074219 C 117.5 372.902344 118.035156 373.707031 118.859375 373.875 L 143.621094 378.875 L 144.226562 375.878906 Z M 144.40625 380.054688 L 118.664062 374.855469 C 117.296875 374.578125 116.410156 373.242188 116.683594 371.875 C 116.960938 370.507812 118.296875 369.621094 119.664062 369.898438 L 145.40625 375.097656 Z M 144.40625 380.054688 " stroke="#6b7280" stroke-width="0.7"/>
<path fill-rule="nonzero" fill="#9ca3af" fill-opacity="1" d="M 85.363281 367.109375 L 110.125 372.109375 C 110.949219 372.277344 111.757812 371.742188 111.925781 370.914062 C 112.09375 370.089844 111.554688 369.28125 110.730469 369.113281 L 85.96875 364.113281 Z M 109.925781 373.089844 L 84.183594 367.890625 L 85.1875 362.933594 L 110.929688 368.132812 C 112.296875 368.410156 113.183594 369.746094 112.90625 371.113281 C 112.628906 372.480469 111.292969 373.367188 109.925781 373.089844 " stroke="#6b7280" stroke-width="0.7"/>
<path fill-rule="nonzero" fill="#9ca3af" fill-opacity="1" d="M 85.011719 367.546875 L 84.03125 367.351562 L 84.835938 363.375 L 85.816406 363.570312 Z M 85.011719 367.546875 " stroke="#6b7280" stroke-width="0.7"/>
<path fill-rule="nonzero" fill="#9ca3af" fill-opacity="1" d="M 59.976562 358.863281 C 59.148438 358.695312 58.34375 359.230469 58.175781 360.058594 C 58.007812 360.882812 58.542969 361.691406 59.371094 361.859375 L 84.128906 366.859375 L 84.734375 363.863281 Z M 84.914062 368.039062 L 59.171875 362.839844 C 57.804688 362.5625 56.917969 361.226562 57.195312 359.859375 C 57.46875 358.492188 58.808594 357.605469 60.171875 357.882812 L 85.914062 363.082031 Z M 84.914062 368.039062 " stroke="#6b7280" stroke-width="0.7"/>
<path fill-rule="nonzero" fill="#9ca3af" fill-opacity="1" d="M 229.871094 268.457031 L 229.1875 268.320312 L 229.386719 267.339844 L 229.96875 267.457031 L 234.980469 242.632812 L 234.402344 242.515625 L 234.597656 241.535156 L 236.160156 241.851562 L 230.929688 267.757812 C 230.828125 268.242188 230.355469 268.554688 229.871094 268.457031 " stroke="#6b7280" stroke-width="0.7"/>
<path fill-rule="nonzero" fill="#9ca3af" fill-opacity="1" d="M 248.539062 176.027344 L 247.859375 175.890625 L 248.054688 174.910156 L 248.636719 175.027344 L 253.480469 151.042969 L 252.898438 150.929688 L 253.097656 149.945312 L 253.777344 150.082031 C 254.265625 150.183594 254.582031 150.65625 254.480469 151.140625 L 249.597656 175.324219 C 249.5 175.8125 249.023438 176.125 248.539062 176.027344 " stroke="#6b7280" stroke-width="0.7"/>
<path fill-rule="nonzero" fill="#9ca3af" fill-opacity="1" d="M 236.042969 242.441406 L 234.480469 242.125 L 234.679688 241.144531 L 235.257812 241.261719 L 240.273438 216.4375 L 239.691406 216.320312 L 239.890625 215.339844 L 240.570312 215.476562 C 241.058594 215.574219 241.371094 216.046875 241.273438 216.535156 Z M 236.042969 242.441406 " stroke="#6b7280" stroke-width="0.7"/>
<path fill-rule="nonzero" fill="#9ca3af" fill-opacity="1" d="M 100.472656 83.335938 C 99.023438 83.042969 97.605469 83.984375 97.3125 85.433594 L 50.203125 318.664062 C 49.910156 320.117188 50.851562 321.535156 52.300781 321.828125 L 191.667969 349.976562 C 193.117188 350.269531 194.539062 349.328125 194.828125 347.878906 L 241.9375 114.644531 C 242.230469 113.195312 241.289062 111.777344 239.839844 111.484375 Z M 191.46875 350.957031 L 52.101562 322.808594 C 50.113281 322.40625 48.820312 320.460938 49.222656 318.46875 L 96.332031 85.234375 C 96.730469 83.246094 98.679688 81.953125 100.667969 82.355469 L 240.039062 110.503906 C 242.03125 110.90625 243.320312 112.851562 242.921875 114.84375 L 195.8125 348.078125 C 195.410156 350.070312 193.460938 351.359375 191.46875 350.957031 " stroke="#6b7280" stroke-width="0.7"/>
</svg>



